#!OML:ASF Y:\EmotionMaleHayes\Project 1\Capture day 1\Session 1\Male1.ASF
:FULLY-SPECIFIED
:DEGREES
2210
root 10.0724 16.819 -0.729903 1078.04 364.114 1094.37
lowerback 5.28967 -1.36097 -19.9258
upperback 2.47832 -2.74738 -2.3516
thorax 0.540938 -1.57167 8.70382
lowerneck -24.7869 4.19919 6.20079
upperneck 21.5202 3.86195 -1.26838
head 11.2351 2.10626 -0.834867
rclavicle 3.94463e-015 7.05686e-015
rhumerus -52.3983 -9.49065 -73.0511
rradius 28.9949
rwrist 6.39345
rhand -9.86897 -33.4969
rfingers 7.12502
rthumb 16.1098 -62.8473
lclavicle 3.94463e-015 7.05686e-015
lhumerus -9.50941 -25.9948 81.1686
lradius 45.2268
lwrist 5.51019
lhand -17.7682 -23.8505
lfingers 7.12502
lthumb 8.49406 5.95869
rfemur -19.9469 -8.0993 2.1881
rtibia 9.42984
rfoot -11.2741 -5.16748
rtoes 15.2104
lfemur 18.5045 4.0827 -36.2173
ltibia 5.25649
lfoot -17.5858 -2.24125
ltoes -0.361955
2211
root 10.0817 16.7984 -0.608525 1078.16 364.345 1093.73
lowerback 5.24768 -1.45826 -19.0068
upperback 2.45622 -2.82618 -2.24103
thorax 0.513657 -1.59864 8.32651
lowerneck -24.9456 4.24197 6.58117
upperneck 21.5786 3.85881 -1.61028
head 11.3028 2.09126 -1.02055
rclavicle 3.79679e-014 -5.06901e-015
rhumerus -52.5742 -9.56025 -73.153
rradius 28.9167
rwrist 6.2817
rhand -9.51485 -33.8571
rfingers 7.12502
rthumb 16.4508 -63.1796
lclavicle 3.79679e-014 -5.06901e-015
lhumerus -9.68867 -26.1267 81.551
lradius 45.1019
lwrist 5.32262
lhand -17.3668 -24.0671
lfingers 7.12502
lthumb 8.88142 5.72594
rfemur -19.8225 -8.26915 2.85477
rtibia 8.03888
rfoot -11.2042 -3.92525
rtoes 12.515
lfemur 18.8167 3.60988 -35.6163
ltibia 5.34115
lfoot -17.902 -1.89502
ltoes -1.99483
2212
root 10.0901 16.78 -0.472718 1078.3 364.633 1093.94
lowerback 5.11093 -1.60613 -19.1193
upperback 2.44886 -2.99487 -2.25046
thorax 0.637713 -1.69337 8.37322
lowerneck -24.9393 4.35967 6.72901
upperneck 21.4758 4.03863 -1.87305
head 11.2803 2.14892 -1.11092
rclavicle -1.72694e-014 3.67752e-015
rhumerus -52.7097 -9.3227 -73.2445
rradius 28.9312
rwrist 6.1144
rhand -8.89934 -33.977
rfingers 7.12502
rthumb 17.0433 -63.2494
lclavicle -1.72694e-014 3.67752e-015
lhumerus -9.94946 -25.8488 82.0294
lradius 44.858
lwrist 4.9379
lhand -17.0705 -24.324
lfingers 7.12502
lthumb 9.16735 5.45673
rfemur -19.7413 -9.72903 2.65323
rtibia 7.30133
rfoot -11.1338 -1.98681
rtoes 11.4855
lfemur 19.1797 3.46549 -35.9104
ltibia 5.46509
lfoot -18.1426 -1.89871
ltoes -3.90561
2213
root 10.099 16.7584 -0.338754 1078.43 364.891 1094.56
lowerback 5.02645 -1.71757 -19.7008
upperback 2.39892 -3.15295 -2.23269
thorax 0.715794 -1.78156 8.70663
lowerneck -25.0798 4.30476 6.49982
upperneck 21.5402 4.05898 -1.94497
head 11.3265 2.12864 -1.09509
rclavicle 1.98536e-014 -8.94531e-015
rhumerus -52.8858 -8.92542 -73.0678
rradius 28.9923
rwrist 6.04064
rhand -8.18765 -33.5856
rfingers 7.12502
rthumb 17.7283 -62.7974
lclavicle 1.98536e-014 -8.94531e-015
lhumerus -10.214 -25.7645 82.6966
lradius 44.5939
lwrist 4.78124
lhand -16.9352 -24.2719
lfingers 7.12502
lthumb 9.29784 5.50305
rfemur -19.6982 -11.1492 1.93094
rtibia 7.01003
rfoot -11.1873 -0.2291
rtoes 11.3901
lfemur 19.5101 3.27594 -36.7105
ltibia 5.70569
lfoot -18.4074 -1.7886
ltoes -5.81035
2214
root 10.1069 16.7358 -0.209417 1078.59 365.071 1094.76
lowerback 4.88865 -1.80475 -19.6711
upperback 2.33795 -3.24151 -2.23138
thorax 0.750872 -1.82407 8.68754
lowerneck -24.7342 4.2332 6.00369
upperneck 21.2473 4.10943 -1.72335
head 11.1369 2.13935 -0.930235
rclavicle -4.40184e-014 -7.37491e-014
rhumerus -52.9695 -8.93617 -72.8436
rradius 28.8234
rwrist 6.36124
rhand -7.45591 -33.2616
rfingers 7.12502
rthumb 18.4323 -62.4083
lclavicle -4.40184e-014 -7.37491e-014
lhumerus -10.5281 -25.9957 83.2809
lradius 44.3691
lwrist 4.62999
lhand -16.8954 -24.1394
lfingers 7.12502
lthumb 9.33628 5.63382
rfemur -19.731 -11.6857 1.60181
rtibia 6.98428
rfoot -11.372 0.783984
rtoes 12.3953
lfemur 19.7699 2.91533 -37.0376
ltibia 5.92979
lfoot -18.5866 -1.90777
ltoes -4.92156
